HIERARCHY
ROOT Hips
{
    OFFSET 0.000000 0.000000 0.000000
    CHANNELS 6 Xposition Yposition Zposition Zrotation Xrotation Yrotation
        JOINT Chest
        {
            OFFSET -0.000000 31.471069 -0.000000
            CHANNELS 3 Zrotation Xrotation Yrotation
            JOINT Neck
            {
                OFFSET -0.000000 23.202770 0.000000
                CHANNELS 3 Zrotation Xrotation Yrotation
                JOINT Head
                {
                    OFFSET -0.000000 11.000000 0.000000
                    CHANNELS 3 Zrotation Xrotation Yrotation
                    End Site
                    {
                        OFFSET -0.000000 17.000000 0.000000
                    }
                }
            }
            JOINT LeftCollar
            {
                OFFSET -0.000000 23.202770 0.000000
                CHANNELS 3 Zrotation Xrotation Yrotation
                JOINT LeftShoulder
                {
                    OFFSET 21.000000 -0.000000 0.000000
                    CHANNELS 3 Zrotation Xrotation Yrotation
                    JOINT LeftElbow
                    {
                        OFFSET 23.506504 0.000000 0.000000
                        CHANNELS 3 Zrotation Xrotation Yrotation
                        JOINT LeftWrist
                        {
                            OFFSET 26.183235 0.000000 0.000000
                            CHANNELS 3 Zrotation Xrotation Yrotation
                            End Site
                            {
                                OFFSET 0.000000 -15.000001 0.000000
                            }
                        }
                    }
                }
            }
            JOINT RightCollar
            {
                OFFSET -0.000000 23.202770 0.000000
                CHANNELS 3 Zrotation Xrotation Yrotation
                JOINT RightShoulder
                {
                    OFFSET -21.000000 0.000000 0.000000
                    CHANNELS 3 Zrotation Xrotation Yrotation
                    JOINT RightElbow
                    {
                        OFFSET -23.506504 0.000000 0.000000
                        CHANNELS 3 Zrotation Xrotation Yrotation
                        JOINT RightWrist
                        {
                            OFFSET -26.183235 0.000000 0.000000
                            CHANNELS 3 Zrotation Xrotation Yrotation
                            End Site
                            {
                                OFFSET -0.000000 -15.000001 0.000000
                            }
                        }
                    }
                }
            }
        }
    JOINT LeftHip
    {
        OFFSET 12.000000 0.000000 0.000000
        CHANNELS 3 Zrotation Xrotation Yrotation
        JOINT LeftKnee
        {
            OFFSET -0.000000 -41.026867 0.000000
            CHANNELS 3 Zrotation Xrotation Yrotation
            JOINT LeftAnkle
            {
                OFFSET -0.000000 -42.711906 0.000000
                CHANNELS 3 Zrotation Xrotation Yrotation
                End Site
                {
                    OFFSET -0.000000 -5.000000 17.000000
                }
            }
        }
    }
    JOINT RightHip
    {
        OFFSET -12.000000 0.000000 0.000000
        CHANNELS 3 Zrotation Xrotation Yrotation
        JOINT RightKnee
        {
            OFFSET -0.000000 -41.026867 0.000000
            CHANNELS 3 Zrotation Xrotation Yrotation
            JOINT RightAnkle
            {
                OFFSET -0.000000 -42.711906 0.000000
                CHANNELS 3 Zrotation Xrotation Yrotation
                End Site
                {
                    OFFSET -0.000000 -5.000000 17.000000
                }
            }
        }
    }
}
MOTION
Frames:    5
Frame Time:    0.010000
-72.983131    90.725121    -64.319496    5.352459    -4.910488    34.753311    -3.308357    8.466225    -3.207539    1.649649    0.318607    -6.616230    -1.932645    -14.181011    -6.919662    -21.007875    -0.371804    2.155969    -38.746017    38.417664    -27.191814    -1.732634    0.881032    -52.859253    127.069252    21.329182    20.610634    25.338768    -1.287892    -5.600416    22.412884    60.141842    32.912811    -6.666306    -3.425155    54.349575    -123.591949    0.125528    -5.091281    -8.216918    14.982721    -3.438057    -1.915668    5.048218    0.314026    6.833392    -12.899347    42.506798    -5.870942    -1.058412    -2.776136    -3.139287    5.688808    -5.483222    11.223163    4.581786    -20.081615    
-72.840492    90.748459    -64.332672    5.687458    -5.483259    34.405346    -3.247496    9.120066    -3.087183    0.617329    -0.201637    -5.576841    -1.687552    -13.713406    -5.781299    -21.152418    -0.523193    3.550191    -38.849762    37.984844    -27.529099    -1.710968    0.820180    -52.282700    127.399445    21.107391    20.956684    25.055109    -1.108252    -4.301131    21.969959    60.661713    33.390228    -6.408613    -3.199408    54.054226    -123.358589    0.221623    -5.558554    -8.425731    15.794497    -2.102319    -1.742838    4.873151    -0.460403    6.860761    -12.926658    42.418247    -5.946928    -0.396851    -2.398672    -3.096577    5.577960    -5.640002    11.500418    4.692936    -19.891413    
-72.840919    90.713417    -64.509834    5.548758    -5.455114    34.285313    -3.139128    8.976446    -3.239084    0.804923    -0.139856    -5.366143    -2.448452    -14.030326    -5.668026    -21.271410    -0.586335    3.269969    -39.134888    37.866955    -26.957249    -1.850735    0.944368    -52.089275    127.244324    21.308558    20.782270    25.024151    -1.043141    -4.458263    21.208317    60.685509    34.235268    -6.431098    -3.263541    53.508858    -121.093399    -0.817688    -5.807075    -8.428240    15.662060    -2.455879    -1.768085    4.741149    -0.167257    7.024949    -12.764845    42.551609    -5.937839    -0.747170    -2.464226    -3.092419    5.758745    -5.622487    11.471127    4.862759    -19.724815    
-72.810677    90.714661    -64.603683    5.580121    -5.591556    34.134228    -3.098279    9.090915    -3.279035    0.842806    -0.187276    -5.151267    -2.905601    -14.161287    -5.513964    -21.325239    -0.633663    3.160505    -39.340446    37.753529    -26.656105    -1.970385    1.006481    -51.837170    127.279793    21.316507    20.775055    24.980778    -1.019910    -4.478125    20.710182    60.777199    34.820354    -6.486348    -3.271390    53.177898    -120.208015    -1.086729    -6.162799    -8.495408    15.819097    -2.257745    -1.731141    4.629203    -0.246949    7.116924    -12.678277    42.590153    -5.963450    -0.733523    -2.408995    -3.081079    5.810420    -5.645502    11.531187    4.979379    -19.588678    
-72.783920    90.716682    -64.717224    5.601803    -5.721699    33.971958    -3.059459    9.193376    -3.336335    0.920908    -0.220935    -4.940125    -3.445754    -14.330649    -5.374785    -21.380636    -0.580601    2.979757    -39.558403    37.521900    -26.340509    -2.235462    1.179196    -51.534847    127.376625    21.304157    20.723028    24.942442    -0.988819    -4.553119    20.149481    60.863449    35.466061    -6.467948    -3.247003    52.844475    -119.450233    -1.306244    -6.584589    -8.568431    15.963882    -2.092877    -1.694545    4.500363    -0.296369    7.228098    -12.564833    42.634792    -5.992286    -0.753457    -2.370918    -3.072247    5.875581    -5.658796    11.592207    5.115965    -19.435358    
